:FULLY-SPECIFIED
:FORCE-ALL-JOINTS-BE-3DOF
:DEGREES
34
root 5.98444 16.8966 -28.0789 9.98125 -1.74082 -2.23046
lfemur -20.2431 1.51518 -19.7966
ltibia 34.0386 0 0
lfoot -35.8902 4.18175 0
ltoes 36.271 0 0
rfemur -16.9736 6.0564 19.5163
rtibia 30.7972 0 0
rfoot -27.55 -18.0315 0
rtoes 13.3745 0 0
lowerback -5.27232 2.48918 -1.01516
upperback -1.89821 3.35463 0.811275
thorax 0.879482 1.68925 1.59321
lowerneck -9.59307 -1.65238 2.68095
upperneck -2.71032 -2.46577 0.639111
head 0.725644 -1.24037 -0.332833
lclavicle 2.89001e-14 1.01664e-14 0
lhumerus -41.5204 -12.478 96.8366
lradius 38.617 0 0
lwrist 5.51449 0 0
lhand -11.5665 4.18557 0
lfingers 7.12502 0 0
lthumb 14.4748 33.6604 0
rclavicle 2.89001e-14 1.01664e-14 0
rhumerus -40.6811 -5.01858 -88.7833
rradius 39.324 0 0
rwrist 10.7382 0 0
rhand -26.7951 -20.2014 0
rfingers 7.12502 0 0
rthumb -0.222205 -50.181 0
35
root 5.97729 16.8968 -28.0795 10.0063 -1.7172 -2.20214
lfemur -20.2648 1.4956 -19.7977
ltibia 34.0232 0 0
lfoot -35.8148 4.18435 0
ltoes 36.153 0 0
rfemur -16.9682 6.06854 19.5107
rtibia 30.7506 0 0
rfoot -27.5047 -18.1022 0
rtoes 13.0586 0 0
lowerback -5.32938 2.46534 -0.913926
upperback -1.87969 3.31907 0.729633
thorax 0.942705 1.66999 1.45468
lowerneck -9.58349 -1.63718 2.71371
upperneck -2.7432 -2.44869 0.709191
head 0.714122 -1.23133 -0.315572
lclavicle 2.54019e-14 9.72151e-15 0
lhumerus -41.5077 -12.5521 96.7831
lradius 38.8201 0 0
lwrist 5.64816 0 0
lhand -11.6005 4.09363 0
lfingers 7.12502 0 0
lthumb 14.442 33.5708 0
rclavicle 2.54019e-14 9.72151e-15 0
rhumerus -40.6258 -5.01762 -88.9058
rradius 39.2821 0 0
rwrist 10.7488 0 0
rhand -26.7834 -20.2243 0
rfingers 7.12502 0 0
rthumb -0.210854 -50.2039 0
36
root 5.97015 16.897 -28.0802 10.0313 -1.69358 -2.17382
lfemur -20.2864 1.47603 -19.7988
ltibia 34.0078 0 0
lfoot -35.7394 4.18694 0
ltoes 36.035 0 0
rfemur -16.9629 6.08068 19.5051
rtibia 30.704 0 0
rfoot -27.4593 -18.1728 0
rtoes 12.7428 0 0
lowerback -5.38644 2.44149 -0.812691
upperback -1.86117 3.28352 0.64799
thorax 1.00593 1.65074 1.31616
lowerneck -9.5739 -1.62197 2.74648
upperneck -2.77609 -2.43161 0.779271
head 0.7026 -1.22229 -0.298311
lclavicle 2.19036e-14 9.27661e-15 0
lhumerus -41.495 -12.6261 96.7295
lradius 39.0232 0 0
lwrist 5.78183 0 0
lhand -11.6345 4.00169 0
lfingers 7.12502 0 0
lthumb 14.4092 33.4812 0
rclavicle 2.19036e-14 9.27661e-15 0
rhumerus -40.5705 -5.01666 -89.0283
rradius 39.2401 0 0
rwrist 10.7594 0 0
rhand -26.7716 -20.2472 0
rfingers 7.12502 0 0
rthumb -0.199502 -50.2268 0
37
root 5.963 16.8973 -28.0809 10.0564 -1.66997 -2.14549
lfemur -20.3081 1.45645 -19.7999
ltibia 33.9924 0 0
lfoot -35.664 4.18953 0
ltoes 35.9169 0 0
rfemur -16.9575 6.09282 19.4994
rtibia 30.6574 0 0
rfoot -27.4139 -18.2435 0
rtoes 12.4269 0 0
lowerback -5.4435 2.41765 -0.711457
upperback -1.84264 3.24797 0.566348
thorax 1.06915 1.63148 1.17764
lowerneck -9.56432 -1.60677 2.77925
upperneck -2.80898 -2.41452 0.849351
head 0.691078 -1.21325 -0.28105
lclavicle 1.84053e-14 8.83171e-15 0
lhumerus -41.4824 -12.7001 96.676
lradius 39.2263 0 0
lwrist 5.91551 0 0
lhand -11.6685 3.90974 0
lfingers 7.12502 0 0
lthumb 14.3765 33.3916 0
rclavicle 1.84053e-14 8.83171e-15 0
rhumerus -40.5152 -5.01571 -89.1507
rradius 39.1982 0 0
rwrist 10.77 0 0
rhand -26.7598 -20.2701 0
rfingers 7.12502 0 0
rthumb -0.188151 -50.2497 0
38
root 5.95585 16.8975 -28.0815 10.0814 -1.64635 -2.11717
lfemur -20.3297 1.43688 -19.801
ltibia 33.977 0 0
lfoot -35.5886 4.19213 0
ltoes 35.7989 0 0
rfemur -16.9521 6.10496 19.4938
rtibia 30.6108 0 0
rfoot -27.3686 -18.3142 0
rtoes 12.1111 0 0
lowerback -5.50056 2.39381 -0.610223
upperback -1.82412 3.21241 0.484706
thorax 1.13237 1.61222 1.03911
lowerneck -9.55474 -1.59156 2.81201
upperneck -2.84186 -2.39744 0.919431
head 0.679556 -1.2042 -0.263788
lclavicle 1.49071e-14 8.38682e-15 0
lhumerus -41.4697 -12.7742 96.6225
lradius 39.4294 0 0
lwrist 6.04918 0 0
lhand -11.7025 3.8178 0
lfingers 7.12502 0 0
lthumb 14.3437 33.302 0
rclavicle 1.49071e-14 8.38682e-15 0
rhumerus -40.4599 -5.01475 -89.2732
rradius 39.1563 0 0
rwrist 10.7807 0 0
rhand -26.7481 -20.293 0
rfingers 7.12502 0 0
rthumb -0.1768 -50.2726 0
39
root 5.94871 16.8977 -28.0822 10.1064 -1.62273 -2.08885
lfemur -20.3514 1.4173 -19.8021
ltibia 33.9616 0 0
lfoot -35.5132 4.19472 0
ltoes 35.6809 0 0
rfemur -16.9468 6.1171 19.4882
rtibia 30.5642 0 0
rfoot -27.3232 -18.3848 0
rtoes 11.7952 0 0
lowerback -5.55762 2.36996 -0.508989
upperback -1.8056 3.17686 0.403064
thorax 1.1956 1.59297 0.900589
lowerneck -9.54515 -1.57636 2.84478
upperneck -2.87475 -2.38036 0.989511
head 0.668034 -1.19516 -0.246527
lclavicle 1.14088e-14 7.94192e-15 0
lhumerus -41.457 -12.8482 96.5689
lradius 39.6325 0 0
lwrist 6.18285 0 0
lhand -11.7365 3.72586 0
lfingers 7.12502 0 0
lthumb 14.3109 33.2124 0
rclavicle 1.14088e-14 7.94192e-15 0
rhumerus -40.4046 -5.01379 -89.3957
rradius 39.1144 0 0
rwrist 10.7913 0 0
rhand -26.7363 -20.3159 0
rfingers 7.12502 0 0
rthumb -0.165448 -50.2955 0
